# xmcd CD database file
#
# Track frame offsets:
#	150
#	12680
#	29328
#	45985
#	58463
#	75205
#	91195
#	104228
#	122678
#	141338
#	160063
#	176228
#	189443
#	207068
#	224000
#	239205
#	255690
#	271485
#	286730
#	301857
#	315480
#
# Disc length: 4376 seconds
#
# Revision: 0
# Processed by: cddbd v1.5.2PL0 Copyright (c) Steve Scherf et al.
# Submitted via: CDex 1.70beta2
#
DISCID=36111615
DTITLE=ChartBreakers - ChartBreakers CGC-523
DYEAR=1900
DGENRE=Country
TTITLE0=Clint Black - State Of Mind
TTITLE1=Boy Howdy - She'd Give anything
TTITLE2=Joe Diffie  - John Deere Green
TTITLE3=Faith Hill - Wild One
TTITLE4=Shenandoah - I Want To Be Loved Like That
TTITLE5=Doug Stone - I Never Knew Love
TTITLE6=Clay Walker - Live Until I Die
TTITLE7=Trisha Yearwod - Walkaway Joe
TTITLE8=Travis Tritt - Help Me Hold On
TTITLE9=Travis Tritt - I'm Gonna Be Somebody
TTITLE10=Tanya Tucker - My Arms Stay Open All Night
TTITLE11=Tanya Tucker - One Love At A Time
TTITLE12=Keith Whitley - Somebody's Doin' Me Right
TTITLE13=Keith Whitley - When You Say Nothing At All
TTITLE14=George Strait - Gone As A Girl Can Get
TTITLE15=George Strait - I Cross My Heart
TTITLE16=Ricky Van Shelton - Wild Man
TTITLE17=Reba McEntire - Take It Back
TTITLE18=Reba McEntire - The Greatest Man I Ever Knew
TTITLE19=George Strait - It Ain't Cool To Be Crazy About You
TTITLE20=George Strait - Nobody In His Right Mind Would've Left Her
EXTD=YEAR: 1900
EXTT0=
EXTT1=
EXTT2=
EXTT3=
EXTT4=
EXTT5=
EXTT6=
EXTT7=
EXTT8=
EXTT9=
EXTT10=
EXTT11=
EXTT12=
EXTT13=
EXTT14=
EXTT15=
EXTT16=
EXTT17=
EXTT18=
EXTT19=
EXTT20=
PLAYORDER=
